<?xml version="1.0" standalone="no"?>
<!DOCTYPE svg PUBLIC "-//W3C//DTD SVG 20010904//EN"
 "http://www.w3.org/TR/2001/REC-SVG-20010904/DTD/svg10.dtd">
<svg version="1.0" xmlns="http://www.w3.org/2000/svg"
 width="1280.000000pt" height="974.000000pt" viewBox="0 0 1280.000000 974.000000"
 preserveAspectRatio="xMidYMid meet">
<metadata>
Created by potrace 1.15, written by Peter Selinger 2001-2017
</metadata>
<g transform="translate(0.000000,974.000000) scale(0.100000,-0.100000)"
fill="#000000" stroke="none">
<path d="M19 9638 c-18 -136 -18 -487 0 -603 26 -173 88 -347 162 -456 70
-103 511 -499 2194 -1969 l679 -592 -3 -82 c-1 -44 3 -153 9 -240 51 -756 272
-1345 655 -1745 115 -121 293 -259 403 -315 17 -9 32 -23 32 -31 0 -9 -49
-165 -109 -348 -225 -684 -333 -1024 -529 -1677 -18 -57 -23 -65 -43 -63 -13
1 -96 6 -184 13 -173 12 -339 4 -476 -25 -78 -16 -259 -64 -271 -71 -6 -4 56
-192 66 -202 2 -2 57 11 122 27 66 16 160 37 209 47 112 21 327 24 451 5 l92
-14 35 -46 c87 -113 150 -241 192 -386 53 -184 60 -248 60 -556 l0 -286 114
-11 c63 -6 117 -9 120 -6 11 10 20 162 20 344 1 275 -29 449 -117 682 -22 57
-38 104 -37 106 2 2 29 -14 61 -34 160 -102 305 -235 397 -365 57 -81 135
-236 177 -355 l33 -90 131 36 c114 31 131 39 128 55 -7 35 -153 318 -209 405
-169 260 -362 419 -733 605 -60 30 -110 59 -110 64 0 5 25 82 56 172 408 1190
615 1793 618 1796 2 2 57 -23 122 -56 247 -124 527 -215 949 -308 26 -6 39
-14 38 -24 -1 -8 -52 -294 -114 -637 l-112 -622 -81 7 c-45 5 -169 8 -276 7
-153 -1 -220 -5 -311 -22 -135 -25 -289 -71 -296 -88 -3 -10 51 -181 61 -191
1 -2 29 6 62 17 32 12 113 32 179 46 147 32 454 44 574 24 71 -12 73 -13 102
-59 43 -66 143 -275 169 -351 67 -199 97 -464 83 -752 l-8 -157 30 -5 c17 -3
62 -8 100 -11 39 -4 77 -9 86 -11 22 -6 26 19 40 235 20 339 -22 590 -150 890
-17 41 -30 76 -27 78 2 2 43 -19 92 -47 288 -166 453 -372 570 -715 20 -60 38
-111 38 -112 2 -2 215 45 233 52 16 6 -41 176 -105 309 -150 313 -368 521
-754 717 -76 38 -138 76 -138 83 0 7 27 152 59 322 33 170 85 442 116 604 31
162 59 304 61 316 5 20 8 20 67 7 107 -22 374 -43 547 -43 1031 0 2022 442
2761 1232 214 228 304 341 614 773 372 518 506 686 695 875 268 267 580 464
1005 632 319 127 720 227 1070 268 186 22 179 25 -70 38 -132 6 -514 25 -848
42 l-608 31 -107 108 c-226 226 -378 324 -640 411 -186 62 -293 81 -495 87
-195 6 -289 -2 -476 -44 -303 -66 -754 -261 -1071 -463 -544 -346 -848 -480
-1210 -536 -215 -33 -671 -12 -1025 46 -1049 174 -2757 1058 -4905 2539 -283
195 -873 616 -1046 748 l-32 24 -13 -103z m9573 -2619 c118 -25 217 -96 268
-191 30 -55 34 -72 35 -138 0 -119 -52 -211 -162 -280 -136 -87 -332 -82 -469
11 -134 91 -182 254 -115 394 73 154 264 242 443 204z"/>
</g>
</svg>
